<svg xmlns="http://www.w3.org/2000/svg" width="15.058" height="16.047" viewBox="0 0 15.058 16.047">
  <g id="Group_259" data-name="Group 259" transform="translate(-385.424 -172)">
    <g id="Group_251" data-name="Group 251" transform="translate(386 172)">
      <ellipse id="Ellipse_34" data-name="Ellipse 34" cx="1.943" cy="1.943" rx="1.943" ry="1.943" transform="translate(7.236)" fill="red"/>
      <path id="Path_180" data-name="Path 180" d="M24.978,35.176H22.512c.118-.524.321-1.2.439-1.639a9.551,9.551,0,0,0,.49-2.2c-.017-.355-.051-.828-.1-1.334-.321-4.071-.777-4.307-1.52-4.307h0a2.769,2.769,0,0,0-2.027.49,1.327,1.327,0,0,0-.3.946c.051.372.186,1.4.186,1.4-.608.169-1.284.355-1.926.507a.879.879,0,1,0,.422,1.706c.676-.169,1.25-.3,1.74-.439l.118.861c-.862.068-1.926.152-2.23.2-.557.084-1.1.152-2.72,4.612a1.058,1.058,0,0,0,.625,1.351.882.882,0,0,0,.355.068,1.091,1.091,0,0,0,1-.693,29.451,29.451,0,0,1,1.4-3.294c.557-.051,1.588-.135,2.416-.2-.608,2.2-.76,2.99-.3,3.6a1.16,1.16,0,0,0,.929.456h3.514a1.053,1.053,0,0,0,1.047-1.047A1.071,1.071,0,0,0,24.978,35.176Z" transform="translate(-11.577 -21.359)" fill="red"/>
      <path id="Path_181" data-name="Path 181" d="M9.344,41.606l-.824.589a.214.214,0,0,0,.047.377l2.708,1.248a.215.215,0,0,0,.235-.353l-1.2-1.06.895-.636a.221.221,0,0,0,0-.353L8.991,39.628a.185.185,0,0,0-.259,0l-.918.659a.22.22,0,0,0,0,.353Z" transform="translate(-6.609 -34.095)" fill="red"/>
      <path id="Path_182" data-name="Path 182" d="M4.883,57.258l-1.614.095.19-1.092A.231.231,0,0,0,3.221,56l-2.849.285c-.095,0-.166.095-.19.19l-.19,1.14a.212.212,0,0,0,.261.237l1.781-.4-.19,1.045a.22.22,0,0,0,.285.237l2.825-1.045A.22.22,0,0,0,4.883,57.258Z" transform="translate(-0.565 -46.54)" fill="red"/>
    </g>
  </g>
</svg>
